<svg width="24" height="51" viewBox="0 0 24 51" fill="none" xmlns="http://www.w3.org/2000/svg">
<rect x="8.65771" y="0.355103" width="6.00842" height="24.4959" rx="3.00421" fill="#007EDA"/>
<rect x="8.65771" y="6.31055" width="5.95559" height="12.5729" rx="2.97779" fill="#007EDA"/>
<path fill-rule="evenodd" clip-rule="evenodd" d="M8.65771 15.9264V9.26755C8.66889 7.63253 9.99778 6.31055 11.6354 6.31055C13.28 6.31055 14.6132 7.64375 14.6132 9.28834V15.9057C14.6132 17.5502 13.28 18.8834 11.6354 18.8834C9.99778 18.8834 8.66889 17.5615 8.65771 15.9264Z" fill="#003EBA"/>
<rect x="16.7305" y="4.98718" width="6.08793" height="21.9695" rx="3.04397" fill="#007EDA"/>
<rect x="0.584473" y="9.22229" width="5.95559" height="18.1314" rx="2.97779" fill="#007EDA"/>
<path fill-rule="evenodd" clip-rule="evenodd" d="M11.7017 43.2074C14.2446 43.2074 16.3061 41.146 16.3061 38.603C16.3061 36.0601 14.2446 33.9986 11.7017 33.9986C9.1587 33.9986 7.09723 36.0601 7.09723 38.603C7.09723 41.146 9.1587 43.2074 11.7017 43.2074ZM11.7017 50.2495C18.1338 50.2495 23.3481 45.0352 23.3481 38.603C23.3481 32.1708 18.1338 26.9565 11.7017 26.9565C5.26948 26.9565 0.0551758 32.1708 0.0551758 38.603C0.0551758 45.0352 5.26948 50.2495 11.7017 50.2495Z" fill="#007EDA"/>
</svg>
