<svg width="43" height="38" viewBox="0 0 43 38" fill="none" xmlns="http://www.w3.org/2000/svg">
<rect x="0.69043" y="7.31665" width="5.90564" height="21.3117" rx="2.95282" fill="#007EDA"/>
<rect x="22.8643" y="16.2307" width="5.90564" height="21.3117" rx="2.95282" fill="#007EDA"/>
<rect x="3.69873" y="16.1726" width="5.90564" height="19.1345" rx="2.95282" transform="rotate(-45 3.69873 16.1726)" fill="#007EDA"/>
<path fill-rule="evenodd" clip-rule="evenodd" d="M10.496 13.7561C12.637 13.7561 14.3727 12.0204 14.3727 9.87945C14.3727 7.73844 12.637 6.00282 10.496 6.00282C8.35502 6.00282 6.61939 7.73844 6.61939 9.87945C6.61939 12.0204 8.35502 13.7561 10.496 13.7561ZM10.496 19.685C15.9115 19.685 20.3016 15.2949 20.3016 9.87945C20.3016 4.46397 15.9115 0.0738525 10.496 0.0738525C5.08054 0.0738525 0.69043 4.46397 0.69043 9.87945C0.69043 15.2949 5.08054 19.685 10.496 19.685Z" fill="#007EDA"/>
<path fill-rule="evenodd" clip-rule="evenodd" d="M8.81007 13.371C8.93862 13.4332 9.07112 13.4885 9.20711 13.5364C9.47952 13.6742 9.73505 13.8569 9.96266 14.0845L14.6448 18.7666C13.3849 19.3558 11.979 19.6849 10.4962 19.6849C8.97251 19.6849 7.52996 19.3373 6.24354 18.7172L5.78673 18.2604C4.63359 17.1072 4.63359 15.2376 5.78674 14.0845C6.60454 13.2667 7.78268 13.0288 8.81007 13.371Z" fill="#003EBA"/>
<path fill-rule="evenodd" clip-rule="evenodd" d="M6.59526 18.8781V10.2692C6.59526 8.63843 5.27323 7.31641 3.64244 7.31641C2.06195 7.31641 0.771475 8.55812 0.693359 10.1192C0.78772 14.0454 3.18989 17.3999 6.59526 18.8781Z" fill="#003EBA"/>
<path fill-rule="evenodd" clip-rule="evenodd" d="M32.6699 22.6701C34.8109 22.6701 36.5465 20.9345 36.5465 18.7935C36.5465 16.6525 34.8109 14.9169 32.6699 14.9169C30.5288 14.9169 28.7932 16.6525 28.7932 18.7935C28.7932 20.9345 30.5288 22.6701 32.6699 22.6701ZM32.6699 28.5991C38.0853 28.5991 42.4754 24.209 42.4754 18.7935C42.4754 13.378 38.0853 8.98792 32.6699 8.98792C27.2544 8.98792 22.8643 13.378 22.8643 18.7935C22.8643 24.209 27.2544 28.5991 32.6699 28.5991Z" fill="#007EDA"/>
<path fill-rule="evenodd" clip-rule="evenodd" d="M28.7694 27.7927V19.1835C28.7694 17.5527 27.4474 16.2307 25.8166 16.2307C24.2339 16.2307 22.942 17.476 22.8672 19.0402C22.9641 22.9637 25.3657 26.3154 28.7694 27.7927Z" fill="#003EBA"/>
</svg>
