<svg width="63" height="33" viewBox="0 0 63 33" fill="none" xmlns="http://www.w3.org/2000/svg">
<rect x="32.0713" y="0.992432" width="9.06305" height="32.7058" rx="4.53152" transform="rotate(75 32.0713 0.992432)" fill="#F7BD4A"/>
<rect x="59.9443" y="15.3566" width="9.06305" height="32.7058" rx="4.53152" transform="rotate(75 59.9443 15.3566)" fill="#F7BD4A"/>
<path fill-rule="evenodd" clip-rule="evenodd" d="M30.7478 22.8449C34.0335 22.8449 36.697 20.1813 36.697 16.8956C36.697 13.6099 34.0335 10.9464 30.7478 10.9464C27.4621 10.9464 24.7985 13.6099 24.7985 16.8956C24.7985 20.1813 27.4621 22.8449 30.7478 22.8449ZM30.7478 31.9437C39.0586 31.9437 45.7959 25.2064 45.7959 16.8956C45.7959 8.58479 39.0586 1.84753 30.7478 1.84753C22.437 1.84753 15.6997 8.58479 15.6997 16.8956C15.6997 25.2064 22.437 31.9437 30.7478 31.9437Z" fill="#F7BD4A"/>
<path fill-rule="evenodd" clip-rule="evenodd" d="M45.621 19.1947L32.7309 22.6486C30.3135 23.2963 28.8789 25.7811 29.5266 28.1986C30.0945 30.3181 32.0747 31.6821 34.1834 31.5495C40.1087 30.1656 44.6879 25.2807 45.621 19.1947Z" fill="#EF8C15"/>
<path fill-rule="evenodd" clip-rule="evenodd" d="M15.855 14.7202L30.0393 10.9195C32.4567 10.2718 33.8913 7.78698 33.2435 5.36957C32.6492 3.15138 30.5081 1.76068 28.2916 2.04697C28.1443 2.07114 27.9977 2.09745 27.8518 2.12587C27.7991 2.13803 27.7463 2.15117 27.6936 2.1653L25.8916 2.64814C20.6256 4.44218 16.6726 9.07365 15.855 14.7202Z" fill="#EF8C15"/>
</svg>
