<svg width="47" height="39" viewBox="0 0 47 39" fill="none" xmlns="http://www.w3.org/2000/svg">
<rect x="8.24707" y="38.0287" width="7.7508" height="26.4697" rx="3.8754" transform="rotate(-180 8.24707 38.0287)" fill="#DFDFDF"/>
<rect x="20.9692" y="38.0287" width="7.7508" height="37.4378" rx="3.8754" transform="rotate(-180 20.9692 38.0287)" fill="#F7BD4A"/>
<rect x="33.6929" y="38.0287" width="7.7508" height="26.4697" rx="3.8754" transform="rotate(-180 33.6929 38.0287)" fill="#DFDFDF"/>
<rect x="46.416" y="38.0287" width="7.7508" height="26.4697" rx="3.8754" transform="rotate(-180 46.416 38.0287)" fill="#DFDFDF"/>
<rect x="0.496094" y="8.34167" width="7.75079" height="45.9198" rx="3.8754" transform="rotate(-90 0.496094 8.34167)" fill="#F7BD4A"/>
<path fill-rule="evenodd" clip-rule="evenodd" d="M20.9696 8.34152L13.2188 8.34152L13.2188 4.46621C13.2188 2.32589 14.9539 0.590816 17.0942 0.590816C19.2346 0.590816 20.9696 2.32589 20.9696 4.46621L20.9696 8.34152Z" fill="#EF8C15"/>
</svg>
