<svg width="133" height="132" viewBox="0 0 133 132" fill="none" xmlns="http://www.w3.org/2000/svg">
<path d="M114.549 132H96.3417C93.9273 132 91.6118 131.041 89.9046 129.334C88.1973 127.626 87.2382 125.311 87.2382 122.897V91.0345C84.8238 91.0345 82.5083 90.0754 80.8011 88.3682C79.0939 86.6609 78.1348 84.3454 78.1348 81.9311V54.6207C78.1348 50.9991 79.5734 47.5259 82.1343 44.965C84.6951 42.4042 88.1684 40.9655 91.7899 40.9655H119.1C122.722 40.9655 126.195 42.4042 128.756 44.965C131.317 47.5259 132.755 50.9991 132.755 54.6207V81.9311C132.755 84.3454 131.796 86.6609 130.089 88.3682C128.382 90.0754 126.066 91.0345 123.652 91.0345V122.897C123.652 125.311 122.693 127.626 120.986 129.334C119.278 131.041 116.963 132 114.549 132ZM91.7899 50.069C91.1818 50.0288 90.5721 50.1189 90.0016 50.3334C89.4311 50.5479 88.913 50.8819 88.4821 51.3128C88.0511 51.7438 87.7172 52.2619 87.5027 52.8323C87.2881 53.4028 87.198 54.0126 87.2382 54.6207V81.9311H96.3417V122.897H114.549V81.9311H123.652V54.6207C123.692 54.0126 123.602 53.4028 123.388 52.8323C123.173 52.2619 122.839 51.7438 122.408 51.3128C121.977 50.8819 121.459 50.5479 120.889 50.3334C120.318 50.1189 119.708 50.0288 119.1 50.069H91.7899ZM105.445 36.4138C101.844 36.4138 98.324 35.346 95.3299 33.3454C92.3358 31.3448 90.0022 28.5013 88.6241 25.1744C87.2461 21.8475 86.8855 18.1867 87.5881 14.6549C88.2906 11.1231 90.0246 7.87897 92.5709 5.33269C95.1172 2.78641 98.3613 1.05237 101.893 0.349849C105.425 -0.352669 109.086 0.0078887 112.413 1.38593C115.739 2.76396 118.583 5.09759 120.584 8.0917C122.584 11.0858 123.652 14.6059 123.652 18.2069C123.652 23.0357 121.734 27.6667 118.319 31.0811C114.905 34.4956 110.274 36.4138 105.445 36.4138ZM105.445 9.10346C103.645 9.10346 101.885 9.63737 100.388 10.6377C98.8905 11.638 97.7236 13.0597 97.0346 14.7232C96.3456 16.3866 96.1653 18.217 96.5166 19.9829C96.8678 21.7488 97.7349 23.3709 99.008 24.644C100.281 25.9172 101.903 26.7842 103.669 27.1354C105.435 27.4867 107.265 27.3064 108.929 26.6174C110.592 25.9284 112.014 24.7616 113.014 23.2645C114.015 21.7675 114.549 20.0074 114.549 18.2069C114.549 15.7925 113.589 13.477 111.882 11.7698C110.175 10.0626 107.86 9.10346 105.445 9.10346Z" fill="#E2E2E2"/>
<path d="M36.4138 132H18.2069C15.7925 132 13.477 131.041 11.7698 129.334C10.0626 127.626 9.10345 125.311 9.10345 122.897V91.0345C6.68906 91.0345 4.37357 90.0754 2.66634 88.3682C0.959112 86.6609 0 84.3454 0 81.9311V54.6207C0 50.9991 1.43866 47.5259 3.99951 44.965C6.56035 42.4042 10.0336 40.9655 13.6552 40.9655H40.9655C44.5871 40.9655 48.0604 42.4042 50.6212 44.965C53.182 47.5259 54.6207 50.9991 54.6207 54.6207V81.9311C54.6207 84.3454 53.6616 86.6609 51.9544 88.3682C50.2471 90.0754 47.9316 91.0345 45.5173 91.0345V122.897C45.5173 125.311 44.5581 127.626 42.8509 129.334C41.1437 131.041 38.8282 132 36.4138 132ZM13.6552 50.069C13.047 50.0288 12.4373 50.1189 11.8668 50.3334C11.2963 50.5479 10.7783 50.8819 10.3473 51.3128C9.91633 51.7438 9.58241 52.2619 9.3679 52.8323C9.15338 53.4028 9.06322 54.0126 9.10345 54.6207V81.9311H18.2069V122.897H36.4138V81.9311H45.5173V54.6207C45.5575 54.0126 45.4673 53.4028 45.2528 52.8323C45.0383 52.2619 44.7044 51.7438 44.2734 51.3128C43.8424 50.8819 43.3244 50.5479 42.7539 50.3334C42.1834 50.1189 41.5737 50.0288 40.9655 50.069H13.6552ZM27.3103 36.4138C23.7094 36.4138 20.1892 35.346 17.1951 33.3454C14.201 31.3448 11.8674 28.5013 10.4894 25.1744C9.11133 21.8475 8.75077 18.1867 9.45329 14.6549C10.1558 11.1231 11.8898 7.87897 14.4361 5.33269C16.9824 2.78641 20.2266 1.05237 23.7584 0.349849C27.2902 -0.352669 30.9509 0.0078887 34.2778 1.38593C37.6047 2.76396 40.4482 5.09759 42.4488 8.0917C44.4494 11.0858 45.5173 14.6059 45.5173 18.2069C45.5173 23.0357 43.599 27.6667 40.1846 31.0811C36.7701 34.4956 32.1391 36.4138 27.3103 36.4138ZM27.3103 9.10346C25.5099 9.10346 23.7498 9.63737 22.2527 10.6377C20.7557 11.638 19.5889 13.0597 18.8999 14.7232C18.2108 16.3866 18.0306 18.217 18.3818 19.9829C18.7331 21.7488 19.6001 23.3709 20.8732 24.644C22.1464 25.9172 23.7685 26.7842 25.5344 27.1354C27.3003 27.4867 29.1307 27.3064 30.7941 26.6174C32.4575 25.9284 33.8793 24.7616 34.8796 23.2645C35.8799 21.7675 36.4138 20.0074 36.4138 18.2069C36.4138 15.7925 35.4547 13.477 33.7475 11.7698C32.0402 10.0626 29.7247 9.10346 27.3103 9.10346Z" fill="#F7BD4A"/>
</svg>
