<svg width="169" height="132" viewBox="0 0 169 132" fill="none" xmlns="http://www.w3.org/2000/svg">
<path d="M52.4524 60.4435H44.1154C43.0098 60.4435 41.9495 60.0044 41.1678 59.2226C40.386 58.4409 39.9468 57.3806 39.9468 56.275V41.6852C38.8413 41.6852 37.781 41.246 36.9993 40.4643C36.2175 39.6825 35.7783 38.6222 35.7783 37.5167V25.0111C35.7783 23.3528 36.4371 21.7624 37.6097 20.5897C38.7823 19.4171 40.3728 18.7583 42.0311 18.7583H54.5367C56.195 18.7583 57.7854 19.4171 58.958 20.5897C60.1307 21.7624 60.7894 23.3528 60.7894 25.0111V37.5167C60.7894 38.6222 60.3503 39.6825 59.5685 40.4643C58.7868 41.246 57.7265 41.6852 56.6209 41.6852V56.275C56.6209 57.3806 56.1817 58.4409 55.4 59.2226C54.6182 60.0044 53.558 60.4435 52.4524 60.4435ZM42.0311 22.9269C41.7526 22.9084 41.4734 22.9497 41.2122 23.048C40.951 23.1462 40.7137 23.2991 40.5164 23.4964C40.3191 23.6938 40.1662 23.931 40.0679 24.1922C39.9697 24.4534 39.9284 24.7326 39.9468 25.0111V37.5167H44.1154V56.275H52.4524V37.5167H56.6209V25.0111C56.6393 24.7326 56.5981 24.4534 56.4998 24.1922C56.4016 23.931 56.2487 23.6938 56.0514 23.4964C55.854 23.2991 55.6168 23.1462 55.3556 23.048C55.0943 22.9497 54.8151 22.9084 54.5367 22.9269H42.0311ZM48.2839 16.6741C46.635 16.6741 45.0231 16.1851 43.6521 15.269C42.2811 14.353 41.2125 13.0509 40.5815 11.5275C39.9504 10.0041 39.7853 8.3278 40.107 6.71057C40.4287 5.09334 41.2227 3.60782 42.3887 2.44187C43.5547 1.27591 45.0402 0.481884 46.6574 0.160198C48.2746 -0.161489 49.9509 0.00361228 51.4743 0.634623C52.9977 1.26563 54.2998 2.33421 55.2159 3.70523C56.132 5.07625 56.6209 6.68813 56.6209 8.33704C56.6209 10.5482 55.7426 12.6687 54.1791 14.2322C52.6156 15.7957 50.495 16.6741 48.2839 16.6741ZM48.2839 4.16852C47.4594 4.16852 46.6535 4.413 45.968 4.87105C45.2825 5.32909 44.7482 5.98012 44.4327 6.74182C44.1172 7.50352 44.0346 8.34167 44.1955 9.15028C44.3563 9.95889 44.7533 10.7017 45.3363 11.2846C45.9193 11.8676 46.662 12.2646 47.4706 12.4255C48.2793 12.5863 49.1174 12.5038 49.8791 12.1883C50.6408 11.8727 51.2918 11.3385 51.7499 10.6529C52.2079 9.96744 52.4524 9.1615 52.4524 8.33704C52.4524 7.23148 52.0132 6.1712 51.2315 5.38945C50.4497 4.60771 49.3894 4.16852 48.2839 4.16852Z" fill="#E2E2E2"/>
<path d="M16.6741 60.4435H8.33704C7.23148 60.4435 6.1712 60.0044 5.38945 59.2226C4.6077 58.4409 4.16852 57.3806 4.16852 56.275V41.6852C3.06296 41.6852 2.00268 41.246 1.22093 40.4643C0.439183 39.6825 0 38.6222 0 37.5167V25.0111C0 23.3528 0.658772 21.7624 1.8314 20.5897C3.00402 19.4171 4.59444 18.7583 6.25278 18.7583H18.7583C20.4167 18.7583 22.0071 19.4171 23.1797 20.5897C24.3523 21.7624 25.0111 23.3528 25.0111 25.0111V37.5167C25.0111 38.6222 24.5719 39.6825 23.7902 40.4643C23.0084 41.246 21.9482 41.6852 20.8426 41.6852V56.275C20.8426 57.3806 20.4034 58.4409 19.6217 59.2226C18.8399 60.0044 17.7796 60.4435 16.6741 60.4435ZM6.25278 22.9269C5.9743 22.9084 5.69511 22.9497 5.43388 23.048C5.17265 23.1462 4.93543 23.2991 4.73808 23.4964C4.54074 23.6938 4.38784 23.931 4.28961 24.1922C4.19138 24.4534 4.1501 24.7326 4.16852 25.0111V37.5167H8.33704V56.275H16.6741V37.5167H20.8426V25.0111C20.861 24.7326 20.8197 24.4534 20.7215 24.1922C20.6233 23.931 20.4704 23.6938 20.273 23.4964C20.0757 23.2991 19.8385 23.1462 19.5772 23.048C19.316 22.9497 19.0368 22.9084 18.7583 22.9269H6.25278ZM12.5056 16.6741C10.8566 16.6741 9.24477 16.1851 7.87375 15.269C6.50273 14.353 5.43415 13.0509 4.80314 11.5275C4.17213 10.0041 4.00703 8.3278 4.32871 6.71057C4.6504 5.09334 5.44443 3.60782 6.61038 2.44187C7.77634 1.27591 9.26186 0.481884 10.8791 0.160198C12.4963 -0.161489 14.1726 0.00361228 15.696 0.634623C17.2194 1.26563 18.5215 2.33421 19.4376 3.70523C20.3536 5.07625 20.8426 6.68813 20.8426 8.33704C20.8426 10.5482 19.9642 12.6687 18.4007 14.2322C16.8372 15.7957 14.7167 16.6741 12.5056 16.6741ZM12.5056 4.16852C11.6811 4.16852 10.8752 4.413 10.1897 4.87105C9.50414 5.32909 8.96985 5.98012 8.65435 6.74182C8.33884 7.50352 8.25629 8.34167 8.41714 9.15028C8.57798 9.95889 8.97499 10.7017 9.55797 11.2846C10.1409 11.8676 10.8837 12.2646 11.6923 12.4255C12.5009 12.5863 13.3391 12.5038 14.1008 12.1883C14.8625 11.8727 15.5135 11.3385 15.9716 10.6529C16.4296 9.96744 16.6741 9.1615 16.6741 8.33704C16.6741 7.23148 16.2349 6.1712 15.4531 5.38945C14.6714 4.60771 13.6111 4.16852 12.5056 4.16852Z" fill="#F7BD4A"/>
<path d="M16.6741 132H8.33704C7.23148 132 6.1712 131.561 5.38945 130.779C4.6077 129.997 4.16852 128.937 4.16852 127.831V113.242C3.06296 113.242 2.00268 112.802 1.22093 112.021C0.439183 111.239 0 110.179 0 109.073V96.5675C0 94.9092 0.658772 93.3188 1.8314 92.1461C3.00402 90.9735 4.59444 90.3147 6.25278 90.3147H18.7583C20.4167 90.3147 22.0071 90.9735 23.1797 92.1461C24.3523 93.3188 25.0111 94.9092 25.0111 96.5675V109.073C25.0111 110.179 24.5719 111.239 23.7902 112.021C23.0084 112.802 21.9482 113.242 20.8426 113.242V127.831C20.8426 128.937 20.4034 129.997 19.6217 130.779C18.8399 131.561 17.7796 132 16.6741 132ZM6.25278 94.4833C5.9743 94.4648 5.69511 94.5061 5.43388 94.6043C5.17265 94.7026 4.93543 94.8555 4.73808 95.0528C4.54074 95.2502 4.38784 95.4874 4.28961 95.7486C4.19138 96.0098 4.1501 96.289 4.16852 96.5675V109.073H8.33704V127.831H16.6741V109.073H20.8426V96.5675C20.861 96.289 20.8197 96.0098 20.7215 95.7486C20.6233 95.4874 20.4704 95.2502 20.273 95.0528C20.0757 94.8555 19.8385 94.7026 19.5772 94.6043C19.316 94.5061 19.0368 94.4648 18.7583 94.4833H6.25278ZM12.5056 88.2305C10.8566 88.2305 9.24477 87.7415 7.87375 86.8254C6.50273 85.9093 5.43415 84.6073 4.80314 83.0839C4.17213 81.5605 4.00703 79.8842 4.32871 78.267C4.6504 76.6497 5.44443 75.1642 6.61038 73.9983C7.77634 72.8323 9.26186 72.0383 10.8791 71.7166C12.4963 71.3949 14.1726 71.56 15.696 72.191C17.2194 72.822 18.5215 73.8906 19.4376 75.2616C20.3536 76.6326 20.8426 78.2445 20.8426 79.8934C20.8426 82.1046 19.9642 84.2251 18.4007 85.7886C16.8372 87.3521 14.7167 88.2305 12.5056 88.2305ZM12.5056 75.7249C11.6811 75.7249 10.8752 75.9694 10.1897 76.4274C9.50414 76.8855 8.96985 77.5365 8.65435 78.2982C8.33884 79.0599 8.25629 79.8981 8.41714 80.7067C8.57798 81.5153 8.97499 82.258 9.55797 82.841C10.1409 83.424 10.8837 83.821 11.6923 83.9819C12.5009 84.1427 13.3391 84.0602 14.1008 83.7446C14.8625 83.4291 15.5135 82.8949 15.9716 82.2093C16.4296 81.5238 16.6741 80.7179 16.6741 79.8934C16.6741 78.7879 16.2349 77.7276 15.4531 76.9459C14.6714 76.1641 13.6111 75.7249 12.5056 75.7249Z" fill="#E2E2E2"/>
<path d="M88.2307 60.4435H79.8937C78.7881 60.4435 77.7278 60.0044 76.9461 59.2226C76.1643 58.4409 75.7252 57.3806 75.7252 56.275V41.6852C74.6196 41.6852 73.5593 41.246 72.7776 40.4643C71.9958 39.6825 71.5566 38.6222 71.5566 37.5167V25.0111C71.5566 23.3528 72.2154 21.7624 73.388 20.5897C74.5607 19.4171 76.1511 18.7583 77.8094 18.7583H90.315C91.9733 18.7583 93.5637 19.4171 94.7364 20.5897C95.909 21.7624 96.5678 23.3528 96.5678 25.0111V37.5167C96.5678 38.6222 96.1286 39.6825 95.3468 40.4643C94.5651 41.246 93.5048 41.6852 92.3992 41.6852V56.275C92.3992 57.3806 91.9601 58.4409 91.1783 59.2226C90.3966 60.0044 89.3363 60.4435 88.2307 60.4435ZM77.8094 22.9269C77.5309 22.9084 77.2517 22.9497 76.9905 23.048C76.7293 23.1462 76.4921 23.2991 76.2947 23.4964C76.0974 23.6938 75.9445 23.931 75.8463 24.1922C75.748 24.4534 75.7067 24.7326 75.7252 25.0111V37.5167H79.8937V56.275H88.2307V37.5167H92.3992V25.0111C92.4177 24.7326 92.3764 24.4534 92.2781 24.1922C92.1799 23.931 92.027 23.6938 91.8297 23.4964C91.6323 23.2991 91.3951 23.1462 91.1339 23.048C90.8727 22.9497 90.5935 22.9084 90.315 22.9269H77.8094ZM84.0622 16.6741C82.4133 16.6741 80.8014 16.1851 79.4304 15.269C78.0594 14.353 76.9908 13.0509 76.3598 11.5275C75.7288 10.0041 75.5637 8.3278 75.8854 6.71057C76.207 5.09334 77.0011 3.60782 78.167 2.44187C79.333 1.27591 80.8185 0.481884 82.4357 0.160198C84.053 -0.161489 85.7292 0.00361228 87.2526 0.634623C88.776 1.26563 90.0781 2.33421 90.9942 3.70523C91.9103 5.07625 92.3992 6.68813 92.3992 8.33704C92.3992 10.5482 91.5209 12.6687 89.9574 14.2322C88.3939 15.7957 86.2733 16.6741 84.0622 16.6741ZM84.0622 4.16852C83.2377 4.16852 82.4318 4.413 81.7463 4.87105C81.0608 5.32909 80.5265 5.98012 80.211 6.74182C79.8955 7.50352 79.8129 8.34167 79.9738 9.15028C80.1346 9.95889 80.5316 10.7017 81.1146 11.2846C81.6976 11.8676 82.4403 12.2646 83.249 12.4255C84.0576 12.5863 84.8957 12.5038 85.6574 12.1883C86.4191 11.8727 87.0702 11.3385 87.5282 10.6529C87.9862 9.96744 88.2307 9.1615 88.2307 8.33704C88.2307 7.23148 87.7915 6.1712 87.0098 5.38945C86.228 4.60771 85.1678 4.16852 84.0622 4.16852Z" fill="#E2E2E2"/>
<path d="M52.4524 132H44.1154C43.0098 132 41.9495 131.561 41.1678 130.779C40.386 129.997 39.9468 128.937 39.9468 127.831V113.242C38.8413 113.242 37.781 112.802 36.9993 112.021C36.2175 111.239 35.7783 110.179 35.7783 109.073V96.5675C35.7783 94.9092 36.4371 93.3188 37.6097 92.1461C38.7823 90.9735 40.3728 90.3147 42.0311 90.3147H54.5367C56.195 90.3147 57.7854 90.9735 58.958 92.1461C60.1307 93.3188 60.7894 94.9092 60.7894 96.5675V109.073C60.7894 110.179 60.3503 111.239 59.5685 112.021C58.7868 112.802 57.7265 113.242 56.6209 113.242V127.831C56.6209 128.937 56.1817 129.997 55.4 130.779C54.6182 131.561 53.558 132 52.4524 132ZM42.0311 94.4833C41.7526 94.4648 41.4734 94.5061 41.2122 94.6043C40.951 94.7026 40.7137 94.8555 40.5164 95.0528C40.3191 95.2502 40.1662 95.4874 40.0679 95.7486C39.9697 96.0098 39.9284 96.289 39.9468 96.5675V109.073H44.1154V127.831H52.4524V109.073H56.6209V96.5675C56.6393 96.289 56.5981 96.0098 56.4998 95.7486C56.4016 95.4874 56.2487 95.2502 56.0514 95.0528C55.854 94.8555 55.6168 94.7026 55.3556 94.6043C55.0943 94.5061 54.8151 94.4648 54.5367 94.4833H42.0311ZM48.2839 88.2305C46.635 88.2305 45.0231 87.7415 43.6521 86.8254C42.2811 85.9093 41.2125 84.6073 40.5815 83.0839C39.9504 81.5605 39.7853 79.8842 40.107 78.267C40.4287 76.6497 41.2227 75.1642 42.3887 73.9983C43.5547 72.8323 45.0402 72.0383 46.6574 71.7166C48.2746 71.3949 49.9509 71.56 51.4743 72.191C52.9977 72.822 54.2998 73.8906 55.2159 75.2616C56.132 76.6326 56.6209 78.2445 56.6209 79.8934C56.6209 82.1046 55.7426 84.2251 54.1791 85.7886C52.6156 87.3521 50.495 88.2305 48.2839 88.2305ZM48.2839 75.7249C47.4594 75.7249 46.6535 75.9694 45.968 76.4274C45.2825 76.8855 44.7482 77.5365 44.4327 78.2982C44.1172 79.0599 44.0346 79.8981 44.1955 80.7067C44.3563 81.5153 44.7533 82.258 45.3363 82.841C45.9193 83.424 46.662 83.821 47.4706 83.9819C48.2793 84.1427 49.1174 84.0602 49.8791 83.7446C50.6408 83.4291 51.2918 82.8949 51.7499 82.2093C52.2079 81.5238 52.4524 80.7179 52.4524 79.8934C52.4524 78.7879 52.0132 77.7276 51.2315 76.9459C50.4497 76.1641 49.3894 75.7249 48.2839 75.7249Z" fill="#E2E2E2"/>
<path d="M124.009 60.4435H115.672C114.566 60.4435 113.506 60.0044 112.724 59.2226C111.943 58.4409 111.503 57.3806 111.503 56.275V41.6852C110.398 41.6852 109.338 41.246 108.556 40.4643C107.774 39.6825 107.335 38.6222 107.335 37.5167V25.0111C107.335 23.3528 107.994 21.7624 109.166 20.5897C110.339 19.4171 111.929 18.7583 113.588 18.7583H126.093C127.752 18.7583 129.342 19.4171 130.515 20.5897C131.687 21.7624 132.346 23.3528 132.346 25.0111V37.5167C132.346 38.6222 131.907 39.6825 131.125 40.4643C130.343 41.246 129.283 41.6852 128.178 41.6852V56.275C128.178 57.3806 127.738 58.4409 126.957 59.2226C126.175 60.0044 125.115 60.4435 124.009 60.4435ZM113.588 22.9269C113.309 22.9084 113.03 22.9497 112.769 23.048C112.508 23.1462 112.27 23.2991 112.073 23.4964C111.876 23.6938 111.723 23.931 111.625 24.1922C111.526 24.4534 111.485 24.7326 111.503 25.0111V37.5167H115.672V56.275H124.009V37.5167H128.178V25.0111C128.196 24.7326 128.155 24.4534 128.056 24.1922C127.958 23.931 127.805 23.6938 127.608 23.4964C127.411 23.2991 127.173 23.1462 126.912 23.048C126.651 22.9497 126.372 22.9084 126.093 22.9269H113.588ZM119.841 16.6741C118.192 16.6741 116.58 16.1851 115.209 15.269C113.838 14.353 112.769 13.0509 112.138 11.5275C111.507 10.0041 111.342 8.3278 111.664 6.71057C111.985 5.09334 112.779 3.60782 113.945 2.44187C115.111 1.27591 116.597 0.481884 118.214 0.160198C119.831 -0.161489 121.508 0.00361228 123.031 0.634623C124.554 1.26563 125.856 2.33421 126.773 3.70523C127.689 5.07625 128.178 6.68813 128.178 8.33704C128.178 10.5482 127.299 12.6687 125.736 14.2322C124.172 15.7957 122.052 16.6741 119.841 16.6741ZM119.841 4.16852C119.016 4.16852 118.21 4.413 117.525 4.87105C116.839 5.32909 116.305 5.98012 115.989 6.74182C115.674 7.50352 115.591 8.34167 115.752 9.15028C115.913 9.95889 116.31 10.7017 116.893 11.2846C117.476 11.8676 118.219 12.2646 119.027 12.4255C119.836 12.5863 120.674 12.5038 121.436 12.1883C122.197 11.8727 122.848 11.3385 123.307 10.6529C123.765 9.96744 124.009 9.1615 124.009 8.33704C124.009 7.23148 123.57 6.1712 122.788 5.38945C122.006 4.60771 120.946 4.16852 119.841 4.16852Z" fill="#E2E2E2"/>
<path d="M88.2307 132H79.8937C78.7881 132 77.7278 131.561 76.9461 130.779C76.1643 129.997 75.7252 128.937 75.7252 127.831V113.242C74.6196 113.242 73.5593 112.802 72.7776 112.021C71.9958 111.239 71.5566 110.179 71.5566 109.073V96.5675C71.5566 94.9092 72.2154 93.3188 73.388 92.1461C74.5607 90.9735 76.1511 90.3147 77.8094 90.3147H90.315C91.9733 90.3147 93.5637 90.9735 94.7364 92.1461C95.909 93.3188 96.5678 94.9092 96.5678 96.5675V109.073C96.5678 110.179 96.1286 111.239 95.3468 112.021C94.5651 112.802 93.5048 113.242 92.3992 113.242V127.831C92.3992 128.937 91.9601 129.997 91.1783 130.779C90.3966 131.561 89.3363 132 88.2307 132ZM77.8094 94.4833C77.5309 94.4648 77.2517 94.5061 76.9905 94.6043C76.7293 94.7026 76.4921 94.8555 76.2947 95.0528C76.0974 95.2502 75.9445 95.4874 75.8463 95.7486C75.748 96.0098 75.7067 96.289 75.7252 96.5675V109.073H79.8937V127.831H88.2307V109.073H92.3992V96.5675C92.4177 96.289 92.3764 96.0098 92.2781 95.7486C92.1799 95.4874 92.027 95.2502 91.8297 95.0528C91.6323 94.8555 91.3951 94.7026 91.1339 94.6043C90.8727 94.5061 90.5935 94.4648 90.315 94.4833H77.8094ZM84.0622 88.2305C82.4133 88.2305 80.8014 87.7415 79.4304 86.8254C78.0594 85.9093 76.9908 84.6073 76.3598 83.0839C75.7288 81.5605 75.5637 79.8842 75.8854 78.267C76.207 76.6497 77.0011 75.1642 78.167 73.9983C79.333 72.8323 80.8185 72.0383 82.4357 71.7166C84.053 71.3949 85.7292 71.56 87.2526 72.191C88.776 72.822 90.0781 73.8906 90.9942 75.2616C91.9103 76.6326 92.3992 78.2445 92.3992 79.8934C92.3992 82.1046 91.5209 84.2251 89.9574 85.7886C88.3939 87.3521 86.2733 88.2305 84.0622 88.2305ZM84.0622 75.7249C83.2377 75.7249 82.4318 75.9694 81.7463 76.4274C81.0608 76.8855 80.5265 77.5365 80.211 78.2982C79.8955 79.0599 79.8129 79.8981 79.9738 80.7067C80.1346 81.5153 80.5316 82.258 81.1146 82.841C81.6976 83.424 82.4403 83.821 83.249 83.9819C84.0576 84.1427 84.8957 84.0602 85.6574 83.7446C86.4191 83.4291 87.0702 82.8949 87.5282 82.2093C87.9862 81.5238 88.2307 80.7179 88.2307 79.8934C88.2307 78.7879 87.7915 77.7276 87.0098 76.9459C86.228 76.1641 85.1678 75.7249 84.0622 75.7249Z" fill="#E2E2E2"/>
<path d="M159.787 60.4435H151.45C150.344 60.4435 149.284 60.0044 148.502 59.2226C147.72 58.4409 147.281 57.3806 147.281 56.275V41.6852C146.176 41.6852 145.115 41.246 144.334 40.4643C143.552 39.6825 143.113 38.6222 143.113 37.5167V25.0111C143.113 23.3528 143.772 21.7624 144.944 20.5897C146.117 19.4171 147.707 18.7583 149.366 18.7583H161.871C163.529 18.7583 165.12 19.4171 166.293 20.5897C167.465 21.7624 168.124 23.3528 168.124 25.0111V37.5167C168.124 38.6222 167.685 39.6825 166.903 40.4643C166.121 41.246 165.061 41.6852 163.955 41.6852V56.275C163.955 57.3806 163.516 58.4409 162.734 59.2226C161.953 60.0044 160.892 60.4435 159.787 60.4435ZM149.366 22.9269C149.087 22.9084 148.808 22.9497 148.547 23.048C148.285 23.1462 148.048 23.2991 147.851 23.4964C147.654 23.6938 147.501 23.931 147.402 24.1922C147.304 24.4534 147.263 24.7326 147.281 25.0111V37.5167H151.45V56.275H159.787V37.5167H163.955V25.0111C163.974 24.7326 163.933 24.4534 163.834 24.1922C163.736 23.931 163.583 23.6938 163.386 23.4964C163.188 23.2991 162.951 23.1462 162.69 23.048C162.429 22.9497 162.15 22.9084 161.871 22.9269H149.366ZM155.618 16.6741C153.969 16.6741 152.358 16.1851 150.987 15.269C149.616 14.353 148.547 13.0509 147.916 11.5275C147.285 10.0041 147.12 8.3278 147.442 6.71057C147.763 5.09334 148.557 3.60782 149.723 2.44187C150.889 1.27591 152.375 0.481884 153.992 0.160198C155.609 -0.161489 157.285 0.00361228 158.809 0.634623C160.332 1.26563 161.634 2.33421 162.55 3.70523C163.466 5.07625 163.955 6.68813 163.955 8.33704C163.955 10.5482 163.077 12.6687 161.514 14.2322C159.95 15.7957 157.829 16.6741 155.618 16.6741ZM155.618 4.16852C154.794 4.16852 153.988 4.413 153.302 4.87105C152.617 5.32909 152.083 5.98012 151.767 6.74182C151.452 7.50352 151.369 8.34167 151.53 9.15028C151.691 9.95889 152.088 10.7017 152.671 11.2846C153.254 11.8676 153.997 12.2646 154.805 12.4255C155.614 12.5863 156.452 12.5038 157.214 12.1883C157.975 11.8727 158.626 11.3385 159.084 10.6529C159.542 9.96744 159.787 9.1615 159.787 8.33704C159.787 7.23148 159.348 6.1712 158.566 5.38945C157.784 4.60771 156.724 4.16852 155.618 4.16852Z" fill="#E2E2E2"/>
<path d="M124.009 132H115.672C114.566 132 113.506 131.561 112.724 130.779C111.943 129.997 111.503 128.937 111.503 127.831V113.242C110.398 113.242 109.338 112.802 108.556 112.021C107.774 111.239 107.335 110.179 107.335 109.073V96.5675C107.335 94.9092 107.994 93.3188 109.166 92.1461C110.339 90.9735 111.929 90.3147 113.588 90.3147H126.093C127.752 90.3147 129.342 90.9735 130.515 92.1461C131.687 93.3188 132.346 94.9092 132.346 96.5675V109.073C132.346 110.179 131.907 111.239 131.125 112.021C130.343 112.802 129.283 113.242 128.178 113.242V127.831C128.178 128.937 127.738 129.997 126.957 130.779C126.175 131.561 125.115 132 124.009 132ZM113.588 94.4833C113.309 94.4648 113.03 94.5061 112.769 94.6043C112.508 94.7026 112.27 94.8555 112.073 95.0528C111.876 95.2502 111.723 95.4874 111.625 95.7486C111.526 96.0098 111.485 96.289 111.503 96.5675V109.073H115.672V127.831H124.009V109.073H128.178V96.5675C128.196 96.289 128.155 96.0098 128.056 95.7486C127.958 95.4874 127.805 95.2502 127.608 95.0528C127.411 94.8555 127.173 94.7026 126.912 94.6043C126.651 94.5061 126.372 94.4648 126.093 94.4833H113.588ZM119.841 88.2305C118.192 88.2305 116.58 87.7415 115.209 86.8254C113.838 85.9093 112.769 84.6073 112.138 83.0839C111.507 81.5605 111.342 79.8842 111.664 78.267C111.985 76.6497 112.779 75.1642 113.945 73.9983C115.111 72.8323 116.597 72.0383 118.214 71.7166C119.831 71.3949 121.508 71.56 123.031 72.191C124.554 72.822 125.856 73.8906 126.773 75.2616C127.689 76.6326 128.178 78.2445 128.178 79.8934C128.178 82.1046 127.299 84.2251 125.736 85.7886C124.172 87.3521 122.052 88.2305 119.841 88.2305ZM119.841 75.7249C119.016 75.7249 118.21 75.9694 117.525 76.4274C116.839 76.8855 116.305 77.5365 115.989 78.2982C115.674 79.0599 115.591 79.8981 115.752 80.7067C115.913 81.5153 116.31 82.258 116.893 82.841C117.476 83.424 118.219 83.821 119.027 83.9819C119.836 84.1427 120.674 84.0602 121.436 83.7446C122.197 83.4291 122.848 82.8949 123.307 82.2093C123.765 81.5238 124.009 80.7179 124.009 79.8934C124.009 78.7879 123.57 77.7276 122.788 76.9459C122.006 76.1641 120.946 75.7249 119.841 75.7249Z" fill="#E2E2E2"/>
<path d="M159.787 132H151.45C150.344 132 149.284 131.561 148.502 130.779C147.72 129.997 147.281 128.937 147.281 127.831V113.242C146.176 113.242 145.115 112.802 144.334 112.021C143.552 111.239 143.113 110.179 143.113 109.073V96.5675C143.113 94.9092 143.772 93.3188 144.944 92.1461C146.117 90.9735 147.707 90.3147 149.366 90.3147H161.871C163.529 90.3147 165.12 90.9735 166.293 92.1461C167.465 93.3188 168.124 94.9092 168.124 96.5675V109.073C168.124 110.179 167.685 111.239 166.903 112.021C166.121 112.802 165.061 113.242 163.955 113.242V127.831C163.955 128.937 163.516 129.997 162.734 130.779C161.953 131.561 160.892 132 159.787 132ZM149.366 94.4833C149.087 94.4648 148.808 94.5061 148.547 94.6043C148.285 94.7026 148.048 94.8555 147.851 95.0528C147.654 95.2502 147.501 95.4874 147.402 95.7486C147.304 96.0098 147.263 96.289 147.281 96.5675V109.073H151.45V127.831H159.787V109.073H163.955V96.5675C163.974 96.289 163.933 96.0098 163.834 95.7486C163.736 95.4874 163.583 95.2502 163.386 95.0528C163.188 94.8555 162.951 94.7026 162.69 94.6043C162.429 94.5061 162.15 94.4648 161.871 94.4833H149.366ZM155.618 88.2305C153.969 88.2305 152.358 87.7415 150.987 86.8254C149.616 85.9093 148.547 84.6073 147.916 83.0839C147.285 81.5605 147.12 79.8842 147.442 78.267C147.763 76.6497 148.557 75.1642 149.723 73.9983C150.889 72.8323 152.375 72.0383 153.992 71.7166C155.609 71.3949 157.285 71.56 158.809 72.191C160.332 72.822 161.634 73.8906 162.55 75.2616C163.466 76.6326 163.955 78.2445 163.955 79.8934C163.955 82.1046 163.077 84.2251 161.514 85.7886C159.95 87.3521 157.829 88.2305 155.618 88.2305ZM155.618 75.7249C154.794 75.7249 153.988 75.9694 153.302 76.4274C152.617 76.8855 152.083 77.5365 151.767 78.2982C151.452 79.0599 151.369 79.8981 151.53 80.7067C151.691 81.5153 152.088 82.258 152.671 82.841C153.254 83.424 153.997 83.821 154.805 83.9819C155.614 84.1427 156.452 84.0602 157.214 83.7446C157.975 83.4291 158.626 82.8949 159.084 82.2093C159.542 81.5238 159.787 80.7179 159.787 79.8934C159.787 78.7879 159.348 77.7276 158.566 76.9459C157.784 76.1641 156.724 75.7249 155.618 75.7249Z" fill="#E2E2E2"/>
</svg>
