<svg width="48" height="49" viewBox="0 0 48 49" fill="none" xmlns="http://www.w3.org/2000/svg">
<path d="M36 36.5C36.7957 36.5 37.5587 36.1839 38.1214 35.6213C38.684 35.0587 39 34.2956 39 33.5V26.174C39 25.3783 38.684 24.6153 38.1214 24.0527C37.5587 23.4901 36.7957 23.174 36 23.174H31.836C31.836 22.121 31.899 21.065 32.022 20.012C32.208 18.896 32.52 17.903 32.952 17.036C33.387 16.166 33.945 15.485 34.629 14.987C35.31 14.429 36.177 14.15 37.233 14.15V9.5C35.496 9.5 33.978 9.872 32.673 10.616C31.3794 11.3525 30.2672 12.3694 29.418 13.592C28.5658 14.9399 27.9377 16.4171 27.558 17.966C27.1755 19.6753 26.9883 21.4225 27 23.174V33.5C27 34.2956 27.3161 35.0587 27.8787 35.6213C28.4413 36.1839 29.2044 36.5 30 36.5H36ZM18 36.5C18.7957 36.5 19.5587 36.1839 20.1214 35.6213C20.684 35.0587 21 34.2956 21 33.5V26.174C21 25.3783 20.684 24.6153 20.1214 24.0527C19.5587 23.4901 18.7957 23.174 18 23.174H13.836C13.836 22.121 13.899 21.065 14.022 20.012C14.208 18.896 14.52 17.903 14.952 17.036C15.387 16.166 15.945 15.485 16.629 14.987C17.31 14.429 18.177 14.15 19.233 14.15V9.5C17.496 9.5 15.978 9.872 14.673 10.616C13.3794 11.3525 12.2672 12.3694 11.418 13.592C10.5658 14.9399 9.93766 16.4171 9.55803 17.966C9.17549 19.6753 8.98829 21.4225 9.00003 23.174V33.5C9.00003 34.2956 9.3161 35.0587 9.87871 35.6213C10.4413 36.1839 11.2044 36.5 12 36.5H18Z" fill="#F7BD4A"/>
</svg>
