<svg width="89" height="40" viewBox="0 0 89 40" fill="none" xmlns="http://www.w3.org/2000/svg">
<g style="mix-blend-mode:multiply">
<rect x="7.74072" y="0.646545" width="6.81444" height="38.7695" rx="3.40722" fill="#007EDA"/>
</g>
<g style="mix-blend-mode:multiply">
<path d="M18.8887 12.5553C20.7704 12.5553 22.2959 14.0808 22.2959 15.9625C22.2959 17.8443 20.7704 19.3697 18.8887 19.3697L3.40733 19.3697C1.52558 19.3697 0.000110395 17.8443 0.000110477 15.9625C0.00011056 14.0808 1.52558 12.5553 3.40733 12.5553L18.8887 12.5553Z" fill="white"/>
<path d="M18.8887 12.5553C20.7704 12.5553 22.2959 14.0808 22.2959 15.9625C22.2959 17.8443 20.7704 19.3697 18.8887 19.3697L3.40733 19.3697C1.52558 19.3697 0.000110395 17.8443 0.000110477 15.9625C0.00011056 14.0808 1.52558 12.5553 3.40733 12.5553L18.8887 12.5553Z" fill="#007EDA"/>
</g>
<g style="mix-blend-mode:multiply">
<path d="M30.0349 39.4129C28.1358 39.4129 26.5962 37.8733 26.5962 35.9741C26.5962 34.075 28.1358 32.5354 30.0349 32.5354L36.7375 32.5354L43.4401 32.5354C45.3393 32.5354 46.8788 34.075 46.8788 35.9741C46.8788 37.8733 45.3393 39.4129 43.4401 39.4129L36.7375 39.4129L30.0349 39.4129Z" fill="#007EDA"/>
</g>
<g style="mix-blend-mode:multiply">
<path fill-rule="evenodd" clip-rule="evenodd" d="M30.9446 32.6563C33.3964 32.6563 35.384 30.6687 35.384 28.2169C35.384 25.7651 33.3964 23.7776 30.9446 23.7776C28.4928 23.7776 26.5052 25.7651 26.5052 28.2169C26.5052 30.6687 28.4928 32.6563 30.9446 32.6563ZM30.9446 39.446C37.1462 39.446 42.1736 34.4186 42.1736 28.2169C42.1736 22.0153 37.1462 16.9879 30.9446 16.9879C24.743 16.9879 19.7156 22.0153 19.7156 28.2169C19.7156 34.4186 24.743 39.446 30.9446 39.446Z" fill="#007EDA"/>
</g>
<g style="mix-blend-mode:multiply">
<rect width="6.74828" height="26.8608" rx="3.37414" transform="matrix(-1 0 0 1 69.3354 12.5553)" fill="#F7BD4A"/>
</g>
<g style="mix-blend-mode:multiply">
<path fill-rule="evenodd" clip-rule="evenodd" d="M58.1362 32.6526C55.6844 32.6526 53.6968 30.665 53.6968 28.2132C53.6968 25.7614 55.6844 23.7738 58.1362 23.7738C60.588 23.7738 62.5756 25.7614 62.5756 28.2132C62.5756 30.665 60.588 32.6526 58.1362 32.6526ZM58.1362 39.4423C51.9346 39.4423 46.9072 34.4148 46.9072 28.2132C46.9072 22.0116 51.9346 16.9842 58.1362 16.9842C64.3378 16.9842 69.3652 22.0116 69.3652 28.2132C69.3652 34.4148 64.3378 39.4423 58.1362 39.4423Z" fill="#F7BD4A"/>
</g>
<circle r="3.39482" transform="matrix(-1 0 0 1 65.9819 7.48168)" fill="#F7BD4A"/>
<g style="mix-blend-mode:multiply">
<rect width="6.74828" height="30.2349" rx="3.37414" transform="matrix(-1 0 0 1 83.6919 9.18115)" fill="#F7BD4A"/>
</g>
<g style="mix-blend-mode:multiply">
<path d="M71.4006 24.5223C69.7428 25.9837 69.8278 28.594 71.5773 29.9443C72.9555 31.0081 74.9047 30.9034 76.1609 29.6979L80.56 25.4768C81.4673 24.6062 82.0639 23.4621 82.2583 22.2198L83.6821 13.1235C83.9063 11.6907 83.1975 10.2734 81.9167 9.59329C79.789 8.46354 77.1936 9.84273 76.9392 12.2383L76.3081 18.1805C76.1562 19.611 75.4732 20.9324 74.3941 21.8836L71.4006 24.5223Z" fill="#F7BD4A"/>
</g>
<circle r="3.39482" transform="matrix(-1 0 0 1 80.3125 4.04137)" fill="#F7BD4A"/>
</svg>
