<svg width="89" height="39" viewBox="0 0 89 39" fill="none" xmlns="http://www.w3.org/2000/svg">
<g style="mix-blend-mode:multiply">
<rect x="7.74072" y="0.146545" width="6.81444" height="38.7695" rx="3.40722" fill="white"/>
</g>
<g style="mix-blend-mode:multiply">
<path d="M18.8887 12.0553C20.7704 12.0553 22.2959 13.5807 22.2959 15.4625C22.2959 17.3442 20.7704 18.8697 18.8887 18.8697L3.40733 18.8697C1.52558 18.8697 0.000110395 17.3442 0.000110477 15.4625C0.00011056 13.5807 1.52558 12.0553 3.40733 12.0553L18.8887 12.0553Z" fill="white"/>
<path d="M18.8887 12.0553C20.7704 12.0553 22.2959 13.5807 22.2959 15.4625C22.2959 17.3442 20.7704 18.8697 18.8887 18.8697L3.40733 18.8697C1.52558 18.8697 0.000110395 17.3442 0.000110477 15.4625C0.00011056 13.5807 1.52558 12.0553 3.40733 12.0553L18.8887 12.0553Z" fill="white"/>
</g>
<g style="mix-blend-mode:multiply">
<path d="M30.0349 38.9129C28.1358 38.9129 26.5962 37.3733 26.5962 35.4742C26.5962 33.575 28.1358 32.0355 30.0349 32.0355L36.7375 32.0355L43.4401 32.0355C45.3393 32.0355 46.8788 33.575 46.8788 35.4742C46.8788 37.3733 45.3393 38.9129 43.4401 38.9129L36.7375 38.9129L30.0349 38.9129Z" fill="white"/>
</g>
<g style="mix-blend-mode:multiply">
<path fill-rule="evenodd" clip-rule="evenodd" d="M30.9446 32.1564C33.3964 32.1564 35.384 30.1688 35.384 27.717C35.384 25.2652 33.3964 23.2776 30.9446 23.2776C28.4928 23.2776 26.5052 25.2652 26.5052 27.717C26.5052 30.1688 28.4928 32.1564 30.9446 32.1564ZM30.9446 38.946C37.1462 38.946 42.1736 33.9186 42.1736 27.717C42.1736 21.5154 37.1462 16.4879 30.9446 16.4879C24.743 16.4879 19.7156 21.5154 19.7156 27.717C19.7156 33.9186 24.743 38.946 30.9446 38.946Z" fill="white"/>
</g>
<g style="mix-blend-mode:multiply">
<rect width="6.74828" height="26.8608" rx="3.37414" transform="matrix(-1 0 0 1 69.3354 12.0553)" fill="white"/>
</g>
<g style="mix-blend-mode:multiply">
<path fill-rule="evenodd" clip-rule="evenodd" d="M58.1362 32.1525C55.6844 32.1525 53.6968 30.165 53.6968 27.7132C53.6968 25.2614 55.6844 23.2738 58.1362 23.2738C60.588 23.2738 62.5756 25.2614 62.5756 27.7132C62.5756 30.165 60.588 32.1525 58.1362 32.1525ZM58.1362 38.9422C51.9346 38.9422 46.9072 33.9148 46.9072 27.7132C46.9072 21.5115 51.9346 16.4841 58.1362 16.4841C64.3378 16.4841 69.3652 21.5115 69.3652 27.7132C69.3652 33.9148 64.3378 38.9422 58.1362 38.9422Z" fill="white"/>
</g>
<circle r="3.39482" transform="matrix(-1 0 0 1 65.9819 6.98164)" fill="white"/>
<g style="mix-blend-mode:multiply">
<rect width="6.74828" height="30.2349" rx="3.37414" transform="matrix(-1 0 0 1 83.6919 8.68112)" fill="white"/>
</g>
<g style="mix-blend-mode:multiply">
<path d="M71.4006 24.0223C69.7428 25.4837 69.8278 28.094 71.5773 29.4443C72.9555 30.5081 74.9047 30.4034 76.1609 29.1979L80.56 24.9768C81.4673 24.1062 82.0639 22.9621 82.2583 21.7198L83.6821 12.6235C83.9063 11.1907 83.1975 9.77337 81.9167 9.09329C79.789 7.96354 77.1936 9.34273 76.9392 11.7383L76.3081 17.6805C76.1562 19.111 75.4732 20.4324 74.3941 21.3836L71.4006 24.0223Z" fill="white"/>
</g>
<circle r="3.39482" transform="matrix(-1 0 0 1 80.3125 3.54137)" fill="white"/>
</svg>
